# xmcd
#
# Track frame offsets: 
#        150
#        30497
#        85902
#        107760
#        136325
#        186667
#        227545
#        254422
#        279792
#
# Disc length: 4661 seconds
#
# Revision: 1
# Processed by: cddbd v1.5.2PL0 Copyright (c) Steve Scherf et al.
# Submitted via: ExactAudioCopy v0.95a5
#
DISCID=73123309
DTITLE=Jun Fukamachi and The New York All Stars - Jun Fukamachi and The Ne
DTITLE=w York All Stars Live
DYEAR=1978
DGENRE=Jazz
TTITLE0=Rocks
TTITLE1=Sara Smile
TTITLE2=Virginia Sunday
TTITLE3=Inside Out
TTITLE4=I'm Sorry
TTITLE5=Dance Of Paranoia Op. 2
TTITLE6=Gypsy Jello
TTITLE7=Jack Knife
TTITLE8=Love Play
EXTD=YEAR: 1978
EXTT0=
EXTT1=
EXTT2=
EXTT3=
EXTT4=
EXTT5=
EXTT6=
EXTT7=
EXTT8=
PLAYORDER=
